<svg preserveAspectRatio="none" width="100%" height="100%" overflow="visible" style="display: block;" viewBox="0 0 20 20" fill="none" xmlns="http://www.w3.org/2000/svg">
<g id="svg291800592_778" clip-path="url(#clip0_0_4)">
<path id="Vector" d="M8.64499 0.967376C9.04412 -0.322459 10.782 -0.322458 11.1811 0.967377L12.6072 5.57589C12.7857 6.15272 13.2977 6.54327 13.8753 6.54327H18.4903C19.7819 6.54327 20.319 8.27873 19.274 9.07589L15.5404 11.9241C15.073 12.2806 14.8775 12.9125 15.056 13.4894L16.4821 18.0979C16.8812 19.3877 15.4753 20.4603 14.4304 19.6631L10.6968 16.8149C10.2294 16.4584 9.59667 16.4584 9.12935 16.8149L5.39579 19.6631C4.35084 20.4603 2.94487 19.3877 3.344 18.0979L4.7701 13.4894C4.94859 12.9125 4.75305 12.2806 4.28573 11.9241L0.552175 9.07589C-0.492776 8.27873 0.0442583 6.54327 1.33589 6.54327H5.95082C6.52846 6.54327 7.0404 6.15272 7.2189 5.57589L8.64499 0.967376Z" fill="var(--fill-0, #FFB545)"/>
</g>
<defs>
<clipPath id="clip0_0_4">
<rect width="20" height="20" fill="white"/>
</clipPath>
</defs>
</svg>
